#!OML:ASF E:\emotionWalksFemale\Project 1\Capture day 1\Session 1\Female1.ASF
:FULLY-SPECIFIED
:DEGREES
491
root 8.56174 15.4305 -7.56218 -183.587 -8.2813 -179.963
lowerback 7.59733 1.20028 1.3892
upperback -4.25843 1.74512 0.556743
thorax -8.75059 0.756832 -0.448331
lowerneck -13.1164 -3.19813 -4.76963
upperneck 11.9907 -3.55919 0.655627
head 5.87992 -1.92097 0.661846
rclavicle 8.69683e-015 -8.34896e-015
rhumerus -51.4016 -6.71116 -69.1683
rradius 33.6267
rwrist 21.1557
rhand -4.86364 -48.5877
rfingers 7.12502
rthumb 20.9244 -77.4791
lclavicle 8.69683e-015 -8.34896e-015
lhumerus -49.1737 12.5183 64.4074
lradius 38.4166
lwrist -9.19954
lhand -0.855644 -30.4933
lfingers 7.12502
lthumb 24.7706 -2.07737
rfemur 0.995381 15.6128 29.5389
rtibia 22.1569
rfoot -22.3048 -33.9436
rtoes 12.8253
lfemur -2.68147 -18.5136 -26.7916
ltibia 27.4939
lfoot -22.4804 15.6142
ltoes -33.3873
492
root 8.56473 15.4296 -7.56997 -183.77 -8.11097 -179.831
lowerback 7.65356 1.27911 1.42713
upperback -4.18905 1.8611 0.589719
thorax -8.70644 0.814121 -0.452766
lowerneck -13.336 -3.18127 -4.51224
upperneck 12.2302 -3.52517 0.287814
head 5.98045 -1.92491 0.501951
rclavicle 2.45996e-014 1.43125e-014
rhumerus -50.5775 -6.90687 -68.5648
rradius 32.7175
rwrist 22.8341
rhand -5.39006 -48.5323
rfingers 7.12502
rthumb 20.4186 -77.4787
lclavicle 2.45996e-014 1.43125e-014
lhumerus -48.5514 11.7359 64.8217
lradius 38.7389
lwrist -7.87948
lhand -1.54799 -29.7396
lfingers 7.12502
lthumb 24.1069 -1.23405
rfemur 1.37257 15.8952 29.826
rtibia 21.8907
rfoot -22.7007 -33.9906
rtoes 13.288
lfemur -2.38553 -18.6234 -26.7253
ltibia 27.4209
lfoot -22.5502 15.8113
ltoes -33.1843
493
root 8.5635 15.4287 -7.57836 -183.829 -7.86685 -179.821
lowerback 7.56875 1.36831 1.39901
upperback -4.18085 1.97466 0.579219
thorax -8.64646 0.87132 -0.462674
lowerneck -13.5014 -3.0914 -4.26759
upperneck 12.5398 -3.40235 -0.0312773
head 6.09379 -1.8852 0.367634
rclavicle -1.35174e-014 -1.98785e-016
rhumerus -49.7977 -7.09717 -67.9811
rradius 31.8421
rwrist 24.8719
rhand -5.86466 -48.5449
rfingers 7.12502
rthumb 19.9625 -77.5395
lclavicle -1.35174e-014 -1.98785e-016
lhumerus -48.0961 10.8539 65.2192
lradius 39.0329
lwrist -6.85488
lhand -2.23358 -29.1738
lfingers 7.12502
lthumb 23.4493 -0.582757
rfemur 1.57197 16.0846 29.8882
rtibia 21.7296
rfoot -22.8849 -33.9043
rtoes 14.1987
lfemur -2.20232 -18.7399 -26.7898
ltibia 27.3463
lfoot -22.5388 16.1566
ltoes -33.1238
494
root 8.55931 15.4319 -7.58519 -183.71 -7.68595 -179.9
lowerback 7.38067 1.43913 1.3881
upperback -4.24908 2.05639 0.51255
thorax -8.6066 0.908183 -0.534555
lowerneck -13.5156 -3.02158 -4.15869
upperneck 12.7482 -3.3054 -0.22927
head 6.15532 -1.85428 0.294111
rclavicle -5.96354e-015 5.36719e-015
rhumerus -49.0865 -7.29125 -67.4553
rradius 31.0829
rwrist 27.0849
rhand -6.32363 -48.8185
rfingers 7.12502
rthumb 19.5212 -77.8585
lclavicle -5.96354e-015 5.36719e-015
lhumerus -47.6101 10.3388 65.414
lradius 38.9302
lwrist -6.53365
lhand -2.76542 -29.3615
lfingers 7.12502
lthumb 22.9391 -0.706133
rfemur 1.50841 16.0708 29.7392
rtibia 21.6718
rfoot -22.7425 -33.7598
rtoes 14.3271
lfemur -2.22195 -18.8729 -26.9053
ltibia 27.2644
lfoot -22.4572 16.5315
ltoes -33.0632
495
root 8.55719 15.4371 -7.59051 -183.517 -7.58778 -180.016
lowerback 7.14184 1.4791 1.3
upperback -4.31437 2.08648 0.439025
thorax -8.53689 0.924424 -0.561067
lowerneck -13.5637 -2.97789 -4.09285
upperneck 12.8935 -3.24392 -0.337744
head 6.20567 -1.8335 0.252712
rclavicle 9.69075e-016 3.18055e-015
rhumerus -48.3484 -7.43116 -67.0748
rradius 30.4252
rwrist 29.22
rhand -6.75039 -49.2606
rfingers 7.12502
rthumb 19.1109 -78.3417
lclavicle 9.69075e-016 3.18055e-015
lhumerus -47.1286 9.8328 65.6094
lradius 38.87
lwrist -6.54845
lhand -2.74023 -30.0273
lfingers 7.12502
lthumb 22.9633 -1.37502
rfemur 1.32825 16.1112 29.5476
rtibia 21.6478
rfoot -22.6206 -33.7163
rtoes 14.308
lfemur -2.34369 -19.0564 -27.015
ltibia 27.2161
lfoot -22.5132 16.7922
ltoes -32.7735
496
root 8.55972 15.4431 -7.59557 -183.301 -7.46744 -180.002
lowerback 6.82698 1.47663 1.16419
upperback -4.42983 2.05608 0.446772
thorax -8.4827 0.914387 -0.464669
lowerneck -13.2486 -2.777 -3.90515
upperneck 12.8137 -3.01593 -0.424245
head 6.11813 -1.72209 0.221439
rclavicle 2.34317e-014 -2.5842e-015
rhumerus -47.6978 -7.22655 -66.9724
rradius 29.9606
rwrist 30.9616
rhand -7.12173 -49.6641
rfingers 7.12502
rthumb 18.7537 -78.7801
lclavicle 2.34317e-014 -2.5842e-015
lhumerus -46.9567 8.80443 66.0409
lradius 39.0824
lwrist -6.36468
lhand -2.86739 -30.4341
lfingers 7.12502
lthumb 22.8412 -1.7667
rfemur 1.08103 16.388 29.5508
rtibia 21.6796
rfoot -22.6358 -33.8534
rtoes 13.5215
lfemur -2.53479 -19.2237 -26.9294
ltibia 27.1738
lfoot -22.6143 16.9347
ltoes -32.4602
497
root 8.56166 15.4489 -7.59828 -183.054 -7.31125 -179.903
lowerback 6.55909 1.4945 1.16892
upperback -4.61855 2.06608 0.464158
thorax -8.53037 0.912923 -0.444661
lowerneck -12.8817 -2.63201 -3.7722
upperneck 12.817 -2.85578 -0.526577
head 6.05065 -1.64993 0.186961
rclavicle -3.06128e-014 -2.26615e-014
rhumerus -47.2116 -6.83799 -66.9967
rradius 29.723
rwrist 32.5031
rhand -7.58377 -50.1135
rfingers 7.12502
rthumb 18.3093 -79.2718
lclavicle -3.06128e-014 -2.26615e-014
lhumerus -46.9679 7.33551 66.8237
lradius 39.4016
lwrist -5.97927
lhand -3.41684 -30.4002
lfingers 7.12502
lthumb 22.3139 -1.66862
rfemur 0.7607 16.591 29.6117
rtibia 21.7451
rfoot -22.6463 -33.8751
rtoes 13.7638
lfemur -2.79507 -19.3627 -26.7337
ltibia 27.1323
lfoot -22.6592 17.0506
ltoes -32.368
498
root 8.56124 15.4525 -7.59895 -182.789 -7.22277 -180.042
lowerback 6.38786 1.54735 1.04401
upperback -4.73732 2.1095 0.394019
thorax -8.55969 0.93533 -0.451023
lowerneck -12.9549 -2.62765 -3.90602
upperneck 13.0144 -2.83651 -0.443902
head 6.12884 -1.64491 0.233851
rclavicle -5.31749e-015 -1.05356e-014
rhumerus -46.6439 -6.40322 -67.1428
rradius 29.6462
rwrist 33.6037
rhand -8.15972 -50.6996
rfingers 7.12502
rthumb 17.7552 -79.909
lclavicle -5.31749e-015 -1.05356e-014
lhumerus -46.6944 6.06799 67.6912
lradius 39.457
lwrist -5.98182
lhand -3.43836 -30.7193
lfingers 7.12502
lthumb 22.2932 -1.98525
rfemur 0.45376 16.6081 29.3674
rtibia 21.7824
rfoot -22.6005 -33.7674
rtoes 13.5402
lfemur -3.06452 -19.4826 -26.8145
ltibia 27.1254
lfoot -22.6415 17.1726
ltoes -32.5736
499
root 8.5605 15.4566 -7.60022 -182.549 -7.157 -180.179
lowerback 6.14926 1.56248 0.86011
upperback -4.75363 2.10177 0.356227
thorax -8.44234 0.941078 -0.379957
lowerneck -13.0804 -2.6048 -4.18633
upperneck 13.104 -2.78998 -0.135391
head 6.18651 -1.61193 0.379237
rclavicle 2.95444e-014 3.37934e-015
rhumerus -45.9533 -5.62605 -67.6389
rradius 29.7322
rwrist 34.0485
rhand -8.51137 -51.3016
rfingers 7.12502
rthumb 17.4167 -80.5413
lclavicle 2.95444e-014 3.37934e-015
lhumerus -46.3754 4.8661 68.5373
lradius 39.4409
lwrist -6.27284
lhand -2.95956 -30.9331
lfingers 7.12502
lthumb 22.7528 -2.25475
rfemur 0.160191 16.6859 29.1481
rtibia 21.8384
rfoot -22.5048 -33.808
rtoes 13.756
lfemur -3.29873 -19.6098 -26.9052
ltibia 27.1214
lfoot -22.5809 17.3097
ltoes -32.8149
500
root 8.55915 15.4613 -7.60329 -182.38 -7.02039 -180.063
lowerback 5.86844 1.56998 0.926632
upperback -4.72271 2.11463 0.393638
thorax -8.24296 0.945749 -0.370562
lowerneck -12.9173 -2.51058 -4.14022
upperneck 12.7875 -2.67174 -0.155027
head 6.05485 -1.54767 0.380814
rclavicle -4.70871e-014 -2.36554e-014
rhumerus -45.1988 -4.55936 -68.3991
rradius 29.8277
rwrist 34.133
rhand -8.47259 -52.0493
rfingers 7.12502
rthumb 17.4541 -81.2857
lclavicle -4.70871e-014 -2.36554e-014
lhumerus -46.1376 3.47244 69.5383
lradius 39.6061
lwrist -6.60347
lhand -2.23318 -30.337
lfingers 7.12502
lthumb 23.4497 -1.74594
rfemur -0.119458 16.8277 29.2272
rtibia 21.9384
rfoot -22.3685 -33.886
rtoes 13.1313
lfemur -3.44953 -19.7474 -26.7471
ltibia 27.0922
lfoot -22.6104 17.4333
ltoes -32.4142
501
root 8.55787 15.4629 -7.60854 -182.26 -6.87115 -179.979
lowerback 5.58933 1.59353 0.976263
upperback -4.67651 2.14728 0.425134
thorax -8.02865 0.961545 -0.360234
lowerneck -12.6867 -2.40453 -3.75208
upperneck 12.3195 -2.54343 -0.609218
head 5.8539 -1.49419 0.192075
rclavicle -1.93815e-014 -1.98785e-016
rhumerus -44.4695 -3.00739 -69.4948
rradius 30.3008
rwrist 32.6494
rhand -7.74018 -53.2522
rfingers 7.12502
rthumb 18.1588 -82.4246
lclavicle -1.93815e-014 -1.98785e-016
lhumerus -45.9244 1.91541 70.7956
lradius 39.7878
lwrist -6.51292
lhand -1.59933 -29.7696
lfingers 7.12502
lthumb 24.0576 -1.25751
rfemur -0.28359 16.9982 29.298
rtibia 21.9887
rfoot -22.3283 -33.8952
rtoes 13.3542
lfemur -3.5321 -19.8959 -26.6528
ltibia 27.0919
lfoot -22.802 17.5232
ltoes -31.344
502
root 8.55754 15.4613 -7.61576 -182.186 -6.75379 -179.962
lowerback 5.27267 1.61083 0.917412
upperback -4.60805 2.16187 0.459605
thorax -7.77322 0.975598 -0.282353
lowerneck -12.4053 -2.32343 -3.67286
upperneck 11.875 -2.44727 -0.69518
head 5.66267 -1.44199 0.167283
rclavicle 2.20403e-014 2.5842e-015
rhumerus -44.0352 -1.25181 -70.5883
rradius 30.8407
rwrist 31.5886
rhand -8.055 -53.4522
rfingers 7.12502
rthumb 17.8559 -82.6525
lclavicle 2.20403e-014 2.5842e-015
lhumerus -46.0646 -0.0394378 72.3039
lradius 40.292
lwrist -6.0112
lhand -1.12354 -29.9473
lfingers 7.12502
lthumb 24.5138 -1.49631
rfemur -0.32316 17.1594 29.3265
rtibia 21.9728
rfoot -22.3319 -33.9315
rtoes 13.6141
lfemur -3.5601 -19.9856 -26.6443
ltibia 27.1269
lfoot -23.0589 17.5167
ltoes -30.1137
503
root 8.55683 15.4596 -7.62049 -182.188 -6.6464 -179.908
lowerback 5.17334 1.64414 0.959507
upperback -4.60369 2.20757 0.459497
thorax -7.70856 0.995811 -0.308231
lowerneck -11.789 -2.20543 -3.86006
upperneck 11.2529 -2.33115 -0.319693
head 5.36875 -1.35443 0.336394
rclavicle -1.26228e-014 -6.16232e-015
rhumerus -43.9359 0.42466 -71.6705
rradius 31.4104
rwrist 30.7268
rhand -9.02331 -53.069
rfingers 7.12502
rthumb 16.924 -82.3516
lclavicle -1.26228e-014 -6.16232e-015
lhumerus -46.6326 -2.59313 73.984
lradius 41.1974
lwrist -5.56159
lhand -0.134266 -29.8985
lfingers 7.12502
lthumb 25.4618 -1.57937
rfemur -0.296663 17.2045 29.4019
rtibia 21.9506
rfoot -22.2622 -33.9117
rtoes 13.1807
lfemur -3.51026 -20.0054 -26.6084
ltibia 27.148
lfoot -23.3193 17.3595
ltoes -28.8953
504
root 8.55563 15.4604 -7.62126 -182.229 -6.56225 -179.879
lowerback 5.26523 1.68239 1.03916
upperback -4.64513 2.26372 0.415934
thorax -7.80131 1.01612 -0.408518
lowerneck -10.8622 -2.05114 -3.75885
upperneck 10.3408 -2.19638 -0.195061
head 4.92721 -1.26086 0.384582
rclavicle -1.15047e-014 -6.55989e-015
rhumerus -43.9681 2.31289 -72.9239
rradius 32.0565
rwrist 29.5769
rhand -9.4474 -52.9142
rfingers 7.12502
rthumb 16.5157 -82.2312
lclavicle -1.15047e-014 -6.55989e-015
lhumerus -47.2457 -5.12361 75.675
lradius 42.0722
lwrist -4.86534
lhand 1.03534 -29.0639
lfingers 7.12502
lthumb 26.5817 -0.90944
rfemur -0.241696 17.2777 29.461
rtibia 21.9448
rfoot -22.206 -33.8905
rtoes 12.9756
lfemur -3.43508 -20.0706 -26.6117
ltibia 27.1402
lfoot -23.5794 17.2181
ltoes -27.7217
